# xmcd
#
# Track frame offsets: 
#        150
#        27275
#        45160
#        62537
#        81737
#        109330
#        125980
#        148842
#        173862
#        190965
#
# Disc length: 2708 seconds
#
# Revision: 14
# Processed by: cddbd v1.5.2PL0 Copyright (c) Steve Scherf et al.
# Submitted via: ExactAudioCopy v1.3
#
DISCID=930a920a
DTITLE=Soul II Soul - Club Classics Vol. One
DYEAR=1989
DGENRE=R&B/Soul
TTITLE0=Soul II Soul (Feat. Caron Wheeler) - Keep On Movin'
TTITLE1=Soul II Soul (Feat. Rose Windross) - Fairplay
TTITLE2=Holdin' On
TTITLE3=Feeling Free (Live Rap)
TTITLE4=African Dance
TTITLE5=Dance
TTITLE6=Soul II Soul (Feat. Do'reen) - Feel Free
TTITLE7=Happiness (Dub)
TTITLE8=Soul II Soul (Feat. Caron Wheeler) - Back To Life (However Do 
TTITLE8=You Want Me) (Accapella)
TTITLE9=Jazzie's Groove
EXTD=
EXTT0=
EXTT1=
EXTT2=
EXTT3=
EXTT4=
EXTT5=
EXTT6=
EXTT7=
EXTT8=
EXTT9=
PLAYORDER=
